STARTFONT 2.1
FONT -DEC-Miriam-Bold-R-Normal--19-140-100-100-P-109-ISO8859-8
SIZE 14 100 100
FONTBOUNDINGBOX 17 19 0 -4

STARTPROPERTIES 26
FONTNAME_REGISTRY ""
FAMILY_NAME "Miriam"
FOUNDRY "DEC"
WEIGHT_NAME "Bold"
SLANT "R"
SETWIDTH_NAME "Normal"
ADD_STYLE_NAME ""
PIXEL_SIZE 19
RESOLUTION_X 100
RESOLUTION_Y 100
SPACING "P"
AVERAGE_WIDTH 109
CHARSET_REGISTRY "ISO8859"
CHARSET_ENCODING "8"
CHARSET_COLLECTIONS "ASCII ISO8859-8 "
FULL_NAME "Miriam Bold"
COPYRIGHT "Digital Israel"
CAP_HEIGHT 14
X_HEIGHT 10
_DEC_DEVICE_FONTNAMES "PS=Miriam-Bold-ISOLatinHebrew"
QUAD_WIDTH 11
POINT_SIZE 140
WEIGHT 10
DEFAULT_CHAR 0
FONT_DESCENT 4
FONT_ASCENT 17
ENDPROPERTIES

CHARS 152

STARTCHAR space
ENCODING 32
SWIDTH 257 0
DWIDTH 5 0
BBX 1 1 0 0
BITMAP
00
ENDCHAR

STARTCHAR exclam
ENCODING 33
SWIDTH 206 0
DWIDTH 4 0
BBX 3 14 0 0
BITMAP
E0
E0
E0
E0
E0
E0
E0
E0
E0
E0
00
E0
E0
E0
ENDCHAR

STARTCHAR quotedbl
ENCODING 34
SWIDTH 411 0
DWIDTH 8 0
BBX 5 6 1 8
BITMAP
D8
D8
D8
D8
D8
D8
ENDCHAR

STARTCHAR numbersign
ENCODING 35
SWIDTH 617 0
DWIDTH 12 0
BBX 9 14 1 0
BITMAP
1B00
1B00
1B00
1B00
7F80
7F80
3600
3600
FF00
FF00
6C00
6C00
6C00
6C00
ENDCHAR

STARTCHAR dollar
ENCODING 36
SWIDTH 566 0
DWIDTH 11 0
BBX 9 17 1 -2
BITMAP
1800
1800
7F00
FF00
E700
E000
F000
7C00
3F00
0F80
0380
E380
F780
FF00
DE00
1800
1800
ENDCHAR

STARTCHAR percent
ENCODING 37
SWIDTH 823 0
DWIDTH 16 0
BBX 15 14 0 0
BITMAP
3830
7C60
EE60
C6C0
EEC0
7D80
3980
0338
037C
06EE
06C6
0CEE
0C7C
1838
ENDCHAR

STARTCHAR ampersand
ENCODING 38
SWIDTH 720 0
DWIDTH 14 0
BBX 12 14 0 0
BITMAP
1E00
3F00
7380
7380
3F00
1F70
3C70
7EF0
F7C0
E3C0
E1C0
F7E0
7F70
3E60
ENDCHAR

STARTCHAR quoteright
ENCODING 39
SWIDTH 206 0
DWIDTH 4 0
BBX 3 6 0 8
BITMAP
E0
E0
E0
60
C0
80
ENDCHAR

STARTCHAR parenleft
ENCODING 40
SWIDTH 360 0
DWIDTH 7 0
BBX 6 16 0 -2
BITMAP
0C
1C
3C
78
70
F0
E0
E0
E0
E0
F0
70
78
3C
1C
0C
ENDCHAR

STARTCHAR parenright
ENCODING 41
SWIDTH 360 0
DWIDTH 7 0
BBX 6 16 0 -2
BITMAP
C0
E0
F0
78
38
3C
1C
1C
1C
1C
3C
38
78
F0
E0
C0
ENDCHAR

STARTCHAR asterisk
ENCODING 42
SWIDTH 360 0
DWIDTH 7 0
BBX 5 6 1 8
BITMAP
50
70
F8
F8
70
50
ENDCHAR

STARTCHAR plus
ENCODING 43
SWIDTH 617 0
DWIDTH 12 0
BBX 10 10 1 0
BITMAP
0C00
0C00
0C00
0C00
FFC0
FFC0
0C00
0C00
0C00
0C00
ENDCHAR

STARTCHAR comma
ENCODING 44
SWIDTH 257 0
DWIDTH 5 0
BBX 3 6 1 -3
BITMAP
E0
E0
E0
60
C0
80
ENDCHAR

STARTCHAR minus
ENCODING 45
SWIDTH 617 0
DWIDTH 12 0
BBX 9 2 1 4
BITMAP
FF80
FF80
ENDCHAR

STARTCHAR period
ENCODING 46
SWIDTH 257 0
DWIDTH 5 0
BBX 3 3 1 0
BITMAP
E0
E0
E0
ENDCHAR

STARTCHAR slash
ENCODING 47
SWIDTH 566 0
DWIDTH 11 0
BBX 9 16 1 -2
BITMAP
0180
0180
0300
0300
0600
0600
0C00
0C00
1800
1800
3000
3000
6000
6000
C000
C000
ENDCHAR

STARTCHAR zero
ENCODING 48
SWIDTH 566 0
DWIDTH 11 0
BBX 10 14 0 0
BITMAP
3F00
7F80
F3C0
E1C0
E1C0
E1C0
E1C0
E1C0
E1C0
E1C0
E1C0
F3C0
7F80
3F00
ENDCHAR

STARTCHAR one
ENCODING 49
SWIDTH 566 0
DWIDTH 11 0
BBX 7 14 2 0
BITMAP
F8
F8
38
38
38
38
38
38
38
38
38
38
FE
FE
ENDCHAR

STARTCHAR two
ENCODING 50
SWIDTH 566 0
DWIDTH 11 0
BBX 9 14 0 0
BITMAP
3E00
7F00
F780
E380
E380
0380
0780
0F00
1E00
3C00
7980
F180
FF80
FF80
ENDCHAR

STARTCHAR three
ENCODING 51
SWIDTH 566 0
DWIDTH 11 0
BBX 9 14 0 0
BITMAP
3E00
7F00
F780
E380
0380
0700
1E00
1F00
0780
0380
E380
F780
7F00
3E00
ENDCHAR

STARTCHAR four
ENCODING 52
SWIDTH 566 0
DWIDTH 11 0
BBX 10 14 0 0
BITMAP
0780
0780
0F80
1F80
1B80
3B80
7380
7380
FFC0
FFC0
0380
0380
07C0
07C0
ENDCHAR

STARTCHAR five
ENCODING 53
SWIDTH 566 0
DWIDTH 11 0
BBX 9 14 1 0
BITMAP
7F00
7F00
6000
6000
E000
FE00
FF00
E380
0380
0380
E380
F700
7F00
3C00
ENDCHAR

STARTCHAR six
ENCODING 54
SWIDTH 566 0
DWIDTH 11 0
BBX 10 14 0 0
BITMAP
0600
0E00
1C00
3C00
3800
7E00
7F80
F3C0
E1C0
E1C0
E1C0
7380
7F80
3E00
ENDCHAR

STARTCHAR seven
ENCODING 55
SWIDTH 566 0
DWIDTH 11 0
BBX 9 14 1 0
BITMAP
FF80
FF80
E380
E300
0700
0600
0E00
0E00
1C00
1C00
3800
3800
7000
7000
ENDCHAR

STARTCHAR eight
ENCODING 56
SWIDTH 566 0
DWIDTH 11 0
BBX 10 14 0 0
BITMAP
1E00
3F00
7380
6180
7380
3F00
3F00
7F80
F3C0
E1C0
E1C0
F3C0
7F80
1E00
ENDCHAR

STARTCHAR nine
ENCODING 57
SWIDTH 566 0
DWIDTH 11 0
BBX 10 14 0 0
BITMAP
1E00
7F80
F3C0
E1C0
E1C0
E1C0
F3C0
7F80
1F80
0700
0E00
1E00
3C00
3000
ENDCHAR

STARTCHAR colon
ENCODING 58
SWIDTH 309 0
DWIDTH 6 0
BBX 3 10 1 0
BITMAP
E0
E0
E0
00
00
00
00
E0
E0
E0
ENDCHAR

STARTCHAR semicolon
ENCODING 59
SWIDTH 206 0
DWIDTH 4 0
BBX 3 13 0 -3
BITMAP
E0
E0
E0
00
00
00
00
E0
E0
E0
60
C0
80
ENDCHAR

STARTCHAR less
ENCODING 60
SWIDTH 617 0
DWIDTH 12 0
BBX 10 11 0 0
BITMAP
0040
01C0
07C0
1F00
7C00
F000
7C00
1F00
07C0
01C0
0040
ENDCHAR

STARTCHAR equal
ENCODING 61
SWIDTH 617 0
DWIDTH 12 0
BBX 9 5 1 3
BITMAP
FF80
FF80
0000
FF80
FF80
ENDCHAR

STARTCHAR greater
ENCODING 62
SWIDTH 617 0
DWIDTH 12 0
BBX 10 11 1 0
BITMAP
8000
E000
F800
3E00
0F80
03C0
0F80
3E00
F800
E000
8000
ENDCHAR

STARTCHAR question
ENCODING 63
SWIDTH 514 0
DWIDTH 10 0
BBX 9 14 0 0
BITMAP
3E00
7F00
F780
E380
E380
0380
0700
0E00
1C00
1C00
0000
1C00
1C00
1C00
ENDCHAR

STARTCHAR at
ENCODING 64
SWIDTH 823 0
DWIDTH 16 0
BBX 14 14 1 0
BITMAP
07C0
1C70
3018
6348
4CCC
C844
98C4
908C
D088
D9B0
4EE0
6000
18F0
0F80
ENDCHAR

STARTCHAR A
ENCODING 65
SWIDTH 720 0
DWIDTH 14 0
BBX 13 14 0 0
BITMAP
0F00
0F00
0700
0F80
0F80
1DC0
1DC0
18C0
3FE0
3FE0
7070
7070
F8F8
F8F8
ENDCHAR

STARTCHAR B
ENCODING 66
SWIDTH 566 0
DWIDTH 11 0
BBX 10 14 0 0
BITMAP
FF00
FF80
73C0
71C0
71C0
7380
7F00
7F80
73C0
71C0
71C0
73C0
FF80
FF00
ENDCHAR

STARTCHAR C
ENCODING 67
SWIDTH 720 0
DWIDTH 14 0
BBX 13 14 0 0
BITMAP
0798
1FF8
3FF8
7878
7038
E000
E000
E000
E000
7038
7878
3FF0
1FE0
0780
ENDCHAR

STARTCHAR D
ENCODING 68
SWIDTH 720 0
DWIDTH 14 0
BBX 13 14 0 0
BITMAP
FF80
FFE0
71F0
7070
7078
7038
7038
7038
7038
7078
7070
71F0
FFE0
FF80
ENDCHAR

STARTCHAR E
ENCODING 69
SWIDTH 566 0
DWIDTH 11 0
BBX 10 14 0 0
BITMAP
FFC0
FFC0
71C0
71C0
7000
7000
7F00
7F00
7000
7000
71C0
71C0
FFC0
FFC0
ENDCHAR

STARTCHAR F
ENCODING 70
SWIDTH 566 0
DWIDTH 11 0
BBX 10 14 0 0
BITMAP
FFC0
FFC0
71C0
71C0
7000
7000
7F00
7F00
7000
7000
7000
7000
F800
F800
ENDCHAR

STARTCHAR G
ENCODING 71
SWIDTH 720 0
DWIDTH 14 0
BBX 13 14 0 0
BITMAP
0798
1FF8
3FF8
7878
7038
E000
E000
E3F8
E3F8
7038
7878
3FF8
1FD8
0718
ENDCHAR

STARTCHAR H
ENCODING 72
SWIDTH 720 0
DWIDTH 14 0
BBX 13 14 0 0
BITMAP
F8F8
F8F8
7070
7070
7070
7070
7FF0
7FF0
7070
7070
7070
7070
F8F8
F8F8
ENDCHAR

STARTCHAR I
ENCODING 73
SWIDTH 309 0
DWIDTH 6 0
BBX 5 14 0 0
BITMAP
F8
F8
70
70
70
70
70
70
70
70
70
70
F8
F8
ENDCHAR

STARTCHAR J
ENCODING 74
SWIDTH 514 0
DWIDTH 10 0
BBX 9 14 0 0
BITMAP
0F80
0F80
0700
0700
0700
0700
0700
0700
0700
0700
E700
FF00
7E00
3C00
ENDCHAR

STARTCHAR K
ENCODING 75
SWIDTH 720 0
DWIDTH 14 0
BBX 13 14 0 0
BITMAP
F9F8
F9F8
70E0
71C0
7380
7700
7E00
7F00
7780
73C0
71E0
70F0
F9F8
F9F8
ENDCHAR

STARTCHAR L
ENCODING 76
SWIDTH 566 0
DWIDTH 11 0
BBX 10 14 0 0
BITMAP
F800
F800
7000
7000
7000
7000
7000
7000
7000
7000
71C0
71C0
FFC0
FFC0
ENDCHAR

STARTCHAR M
ENCODING 77
SWIDTH 874 0
DWIDTH 17 0
BBX 16 14 0 0
BITMAP
F81F
F81F
781E
7C3E
7C3E
7E7E
766E
766E
77EE
73CE
73CE
73CE
F99F
F99F
ENDCHAR

STARTCHAR N
ENCODING 78
SWIDTH 771 0
DWIDTH 15 0
BBX 14 14 0 0
BITMAP
F07C
F87C
7838
7C38
7E38
7F38
7738
73B8
73F8
71F8
70F8
7078
F838
F838
ENDCHAR

STARTCHAR O
ENCODING 79
SWIDTH 771 0
DWIDTH 15 0
BBX 14 14 0 0
BITMAP
0780
1FE0
3FF0
7878
7038
E01C
E01C
E01C
E01C
7038
7878
3FF0
1FE0
0780
ENDCHAR

STARTCHAR P
ENCODING 80
SWIDTH 566 0
DWIDTH 11 0
BBX 10 14 0 0
BITMAP
FF00
FF80
73C0
71C0
71C0
71C0
73C0
7F80
7F00
7000
7000
7000
F800
F800
ENDCHAR

STARTCHAR Q
ENCODING 81
SWIDTH 823 0
DWIDTH 16 0
BBX 16 14 0 0
BITMAP
0780
1FE0
3FF0
7878
7038
E01C
E01C
FE1C
FF9C
73D8
78F8
3FFB
1FFF
078F
ENDCHAR

STARTCHAR R
ENCODING 82
SWIDTH 617 0
DWIDTH 12 0
BBX 11 14 0 0
BITMAP
FF80
FFC0
71E0
70E0
70E0
70E0
71C0
7FC0
7F00
7700
7380
71C0
F9E0
F9E0
ENDCHAR

STARTCHAR S
ENCODING 83
SWIDTH 514 0
DWIDTH 10 0
BBX 9 14 0 0
BITMAP
3D80
7F80
F380
E380
E000
F800
7E00
3F00
0780
0380
E380
E780
FF00
DE00
ENDCHAR

STARTCHAR T
ENCODING 84
SWIDTH 617 0
DWIDTH 12 0
BBX 11 14 0 0
BITMAP
FFE0
FFE0
CE60
CE60
0E00
0E00
0E00
0E00
0E00
0E00
0E00
0E00
3F80
3F80
ENDCHAR

STARTCHAR U
ENCODING 85
SWIDTH 669 0
DWIDTH 13 0
BBX 12 14 0 0
BITMAP
F9F0
F9F0
70E0
70E0
70E0
70E0
70E0
70E0
70E0
70E0
70E0
79E0
3FC0
1F80
ENDCHAR

STARTCHAR V
ENCODING 86
SWIDTH 720 0
DWIDTH 14 0
BBX 13 14 0 0
BITMAP
F8F8
F8F8
7070
78E0
38E0
38E0
1DC0
1DC0
1DC0
0F80
0F80
0700
0700
0700
ENDCHAR

STARTCHAR W
ENCODING 87
SWIDTH 926 0
DWIDTH 18 0
BBX 17 14 0 0
BITMAP
F9CF80
F9CF80
71C700
71C700
33E600
336600
3B6E00
3B6E00
1B6C00
1E3C00
1E3C00
1E3C00
0C1800
0C1800
ENDCHAR

STARTCHAR X
ENCODING 88
SWIDTH 720 0
DWIDTH 14 0
BBX 13 14 0 0
BITMAP
F8F8
F8F8
7070
38E0
1DC0
1F80
0F00
0780
0FC0
1DE0
38E0
7070
F9F8
F9F8
ENDCHAR

STARTCHAR Y
ENCODING 89
SWIDTH 669 0
DWIDTH 13 0
BBX 13 14 0 0
BITMAP
F8F8
F8F8
7070
38E0
38E0
1DC0
0D80
0F80
0700
0700
0700
0700
0F80
0F80
ENDCHAR

STARTCHAR Z
ENCODING 90
SWIDTH 566 0
DWIDTH 11 0
BBX 10 14 0 0
BITMAP
FFC0
FFC0
E380
E780
0700
0E00
1E00
1C00
3800
7800
71C0
E1C0
FFC0
FFC0
ENDCHAR

STARTCHAR bracketleft
ENCODING 91
SWIDTH 360 0
DWIDTH 7 0
BBX 6 17 0 -3
BITMAP
FC
FC
E0
E0
E0
E0
E0
E0
E0
E0
E0
E0
E0
E0
E0
FC
FC
ENDCHAR

STARTCHAR backslash
ENCODING 92
SWIDTH 617 0
DWIDTH 12 0
BBX 6 14 2 0
BITMAP
C0
C0
E0
60
60
70
30
30
38
18
18
1C
0C
0C
ENDCHAR

STARTCHAR bracketright
ENCODING 93
SWIDTH 360 0
DWIDTH 7 0
BBX 6 17 0 -3
BITMAP
FC
FC
1C
1C
1C
1C
1C
1C
1C
1C
1C
1C
1C
1C
1C
FC
FC
ENDCHAR

STARTCHAR asciicircum
ENCODING 94
SWIDTH 669 0
DWIDTH 13 0
BBX 11 10 1 4
BITMAP
0400
0E00
0E00
1F00
1B00
3B80
3180
71C0
60C0
E0E0
ENDCHAR

STARTCHAR underscore
ENCODING 95
SWIDTH 514 0
DWIDTH 10 0
BBX 10 2 0 -3
BITMAP
FFC0
FFC0
ENDCHAR

STARTCHAR quoteleft
ENCODING 96
SWIDTH 206 0
DWIDTH 4 0
BBX 3 6 0 8
BITMAP
20
60
C0
E0
E0
E0
ENDCHAR

STARTCHAR a
ENCODING 97
SWIDTH 617 0
DWIDTH 12 0
BBX 11 10 0 0
BITMAP
3EE0
7FE0
F3C0
E1C0
E1C0
E1C0
E1C0
F3C0
7FE0
3EE0
ENDCHAR

STARTCHAR b
ENCODING 98
SWIDTH 617 0
DWIDTH 12 0
BBX 11 14 0 0
BITMAP
F000
F000
7000
7000
7780
7FC0
79E0
70E0
70E0
70E0
70E0
79E0
FFC0
F780
ENDCHAR

STARTCHAR c
ENCODING 99
SWIDTH 566 0
DWIDTH 11 0
BBX 10 10 0 0
BITMAP
3EC0
7FC0
F3C0
E000
E000
E000
E1C0
F1C0
7F80
3F00
ENDCHAR

STARTCHAR d
ENCODING 100
SWIDTH 617 0
DWIDTH 12 0
BBX 11 14 0 0
BITMAP
03C0
03C0
01C0
01C0
3DC0
7FC0
F3C0
E1C0
E1C0
E1C0
E1C0
F3C0
7FE0
3DE0
ENDCHAR

STARTCHAR e
ENCODING 101
SWIDTH 566 0
DWIDTH 11 0
BBX 10 10 0 0
BITMAP
3F00
7F80
F3C0
E1C0
FFC0
FFC0
E000
F1C0
7F80
3F00
ENDCHAR

STARTCHAR f
ENCODING 102
SWIDTH 309 0
DWIDTH 6 0
BBX 5 14 0 0
BITMAP
18
38
78
70
F8
F8
70
70
70
70
70
70
F8
F8
ENDCHAR

STARTCHAR g
ENCODING 103
SWIDTH 617 0
DWIDTH 12 0
BBX 11 14 0 -4
BITMAP
3DE0
7FE0
F3C0
E1C0
E1C0
E1C0
E1C0
F3C0
7FC0
3EC0
01C0
71C0
7F80
3F00
ENDCHAR

STARTCHAR h
ENCODING 104
SWIDTH 617 0
DWIDTH 12 0
BBX 11 14 0 0
BITMAP
F000
F000
7000
7000
7700
7F80
7BC0
71C0
71C0
71C0
71C0
71C0
FBE0
FBE0
ENDCHAR

STARTCHAR i
ENCODING 105
SWIDTH 309 0
DWIDTH 6 0
BBX 5 14 0 0
BITMAP
70
70
70
00
F0
F0
70
70
70
70
70
70
F8
F8
ENDCHAR

STARTCHAR j
ENCODING 106
SWIDTH 257 0
DWIDTH 5 0
BBX 4 18 0 -4
BITMAP
70
70
70
00
F0
F0
70
70
70
70
70
70
70
70
70
F0
E0
C0
ENDCHAR

STARTCHAR k
ENCODING 107
SWIDTH 566 0
DWIDTH 11 0
BBX 10 14 0 0
BITMAP
F000
F000
7000
7000
73C0
73C0
7380
7700
7E00
7E00
7700
7380
FBC0
FBC0
ENDCHAR

STARTCHAR l
ENCODING 108
SWIDTH 309 0
DWIDTH 6 0
BBX 5 14 0 0
BITMAP
F0
F0
70
70
70
70
70
70
70
70
70
70
F8
F8
ENDCHAR

STARTCHAR m
ENCODING 109
SWIDTH 926 0
DWIDTH 18 0
BBX 17 10 0 0
BITMAP
F73E00
FFFF00
7BEF00
71C700
71C700
71C700
71C700
71C700
FBEF80
FBEF80
ENDCHAR

STARTCHAR n
ENCODING 110
SWIDTH 617 0
DWIDTH 12 0
BBX 11 10 0 0
BITMAP
EF00
FF80
7BC0
71C0
71C0
71C0
71C0
71C0
FBE0
FBE0
ENDCHAR

STARTCHAR o
ENCODING 111
SWIDTH 566 0
DWIDTH 11 0
BBX 10 10 0 0
BITMAP
3F00
7F80
F3C0
E1C0
E1C0
E1C0
E1C0
F3C0
7F80
3F00
ENDCHAR

STARTCHAR p
ENCODING 112
SWIDTH 617 0
DWIDTH 12 0
BBX 11 14 0 -4
BITMAP
F780
FFC0
79E0
70E0
70E0
70E0
70E0
79E0
7FC0
7780
7000
7000
F800
F800
ENDCHAR

STARTCHAR q
ENCODING 113
SWIDTH 617 0
DWIDTH 12 0
BBX 11 14 0 -4
BITMAP
3DE0
7FE0
F3C0
E1C0
E1C0
E1C0
E1C0
F3C0
7FC0
3DC0
01C0
01C0
03E0
03E0
ENDCHAR

STARTCHAR r
ENCODING 114
SWIDTH 411 0
DWIDTH 8 0
BBX 7 10 0 0
BITMAP
F6
FE
7E
70
70
70
70
70
F8
F8
ENDCHAR

STARTCHAR s
ENCODING 115
SWIDTH 463 0
DWIDTH 9 0
BBX 8 10 0 0
BITMAP
7B
FF
E7
F0
FC
7F
0F
E7
FF
DE
ENDCHAR

STARTCHAR t
ENCODING 116
SWIDTH 309 0
DWIDTH 6 0
BBX 5 14 0 0
BITMAP
70
70
70
70
F8
F8
70
70
70
70
70
70
78
78
ENDCHAR

STARTCHAR u
ENCODING 117
SWIDTH 617 0
DWIDTH 12 0
BBX 11 10 0 0
BITMAP
F3C0
F3C0
71C0
71C0
71C0
71C0
71C0
7BC0
3FE0
1DE0
ENDCHAR

STARTCHAR v
ENCODING 118
SWIDTH 566 0
DWIDTH 11 0
BBX 11 10 0 0
BITMAP
FBE0
FBE0
71C0
71C0
3B80
3B80
1B00
1F00
0E00
0E00
ENDCHAR

STARTCHAR w
ENCODING 119
SWIDTH 823 0
DWIDTH 16 0
BBX 15 10 0 0
BITMAP
FBBE
FBBE
739C
3398
37D8
36D8
1EF0
1C70
1C70
1C70
ENDCHAR

STARTCHAR x
ENCODING 120
SWIDTH 617 0
DWIDTH 12 0
BBX 11 10 0 0
BITMAP
FBE0
FBE0
71C0
3B80
1F00
1F00
3B80
71C0
FBE0
FBE0
ENDCHAR

STARTCHAR y
ENCODING 121
SWIDTH 514 0
DWIDTH 10 0
BBX 11 14 0 -4
BITMAP
FBE0
FBE0
71C0
7180
3B80
3B00
1F00
1F00
0E00
0E00
0C00
1C00
3E00
3E00
ENDCHAR

STARTCHAR z
ENCODING 122
SWIDTH 463 0
DWIDTH 9 0
BBX 8 10 0 0
BITMAP
FF
FF
C7
0E
1C
38
70
E3
FF
FF
ENDCHAR

STARTCHAR braceleft
ENCODING 123
SWIDTH 309 0
DWIDTH 6 0
BBX 5 17 0 -3
BITMAP
38
70
70
70
70
70
70
60
C0
60
70
70
70
70
70
70
38
ENDCHAR

STARTCHAR bar
ENCODING 124
SWIDTH 617 0
DWIDTH 12 0
BBX 2 14 5 0
BITMAP
C0
C0
C0
C0
C0
C0
C0
C0
C0
C0
C0
C0
C0
C0
ENDCHAR

STARTCHAR braceright
ENCODING 125
SWIDTH 360 0
DWIDTH 7 0
BBX 5 17 1 -3
BITMAP
E0
70
70
70
70
70
70
30
18
30
70
70
70
70
70
70
E0
ENDCHAR

STARTCHAR asciitilde
ENCODING 126
SWIDTH 669 0
DWIDTH 13 0
BBX 11 3 1 5
BITMAP
3CE0
7FC0
E780
ENDCHAR

STARTCHAR cent
ENCODING 162
SWIDTH 566 0
DWIDTH 11 0
BBX 8 12 1 1
BITMAP
18
18
3B
7F
E7
E0
E0
E3
7F
3E
18
18
ENDCHAR

STARTCHAR sterling
ENCODING 163
SWIDTH 669 0
DWIDTH 13 0
BBX 11 14 1 0
BITMAP
1EC0
3FC0
71C0
71C0
7000
3800
FF00
FF00
1C00
1CE0
1CE0
1CE0
7FC0
7F80
ENDCHAR

STARTCHAR currency
ENCODING 164
SWIDTH 566 0
DWIDTH 11 0
BBX 10 10 0 1
BITMAP
CCC0
FFC0
7380
6180
C0C0
C0C0
6180
7380
FFC0
CCC0
ENDCHAR

STARTCHAR yen
ENCODING 165
SWIDTH 720 0
DWIDTH 14 0
BBX 13 14 0 0
BITMAP
F8F8
F8F8
7070
38E0
38E0
1DC0
7DF0
0700
7FF0
0700
0700
0700
0F80
0F80
ENDCHAR

STARTCHAR brokenbar
ENCODING 166
SWIDTH 617 0
DWIDTH 12 0
BBX 2 14 5 0
BITMAP
C0
C0
C0
C0
C0
00
00
00
00
C0
C0
C0
C0
C0
ENDCHAR

STARTCHAR section
ENCODING 167
SWIDTH 514 0
DWIDTH 10 0
BBX 7 17 1 -3
BITMAP
38
7C
EE
C0
E0
78
7C
EE
C6
EE
7C
3C
0E
C6
EE
7C
38
ENDCHAR

STARTCHAR dieresis
ENCODING 168
SWIDTH 463 0
DWIDTH 9 0
BBX 6 3 2 11
BITMAP
CC
CC
CC
ENDCHAR

STARTCHAR copyright
ENCODING 169
SWIDTH 823 0
DWIDTH 16 0
BBX 14 14 1 0
BITMAP
0FC0
3870
6018
4788
CCCC
9864
9004
9004
9864
CCCC
4788
6018
3870
0FC0
ENDCHAR

STARTCHAR multiply
ENCODING 170
SWIDTH 617 0
DWIDTH 12 0
BBX 10 10 1 0
BITMAP
4080
E1C0
7380
3F00
1E00
1E00
3F00
7380
E1C0
4080
ENDCHAR

STARTCHAR guillemotleft
ENCODING 171
SWIDTH 411 0
DWIDTH 8 0
BBX 6 7 1 2
BITMAP
24
6C
D8
90
D8
6C
24
ENDCHAR

STARTCHAR logicalnot
ENCODING 172
SWIDTH 617 0
DWIDTH 12 0
BBX 10 6 1 2
BITMAP
FFC0
FFC0
00C0
00C0
00C0
00C0
ENDCHAR

STARTCHAR hyphen
ENCODING 173
SWIDTH 309 0
DWIDTH 6 0
BBX 5 2 0 6
BITMAP
F8
F8
ENDCHAR

STARTCHAR registered
ENCODING 174
SWIDTH 823 0
DWIDTH 16 0
BBX 14 14 1 0
BITMAP
0FC0
3870
6018
4F88
C84C
8844
8844
8F84
8884
C84C
4848
6018
3870
0FC0
ENDCHAR

STARTCHAR macron
ENCODING 175
SWIDTH 514 0
DWIDTH 10 0
BBX 7 2 2 12
BITMAP
FE
FE
ENDCHAR

STARTCHAR degree
ENCODING 176
SWIDTH 360 0
DWIDTH 7 0
BBX 5 5 0 9
BITMAP
70
D8
88
D8
70
ENDCHAR

STARTCHAR plusminus
ENCODING 177
SWIDTH 617 0
DWIDTH 12 0
BBX 10 11 1 0
BITMAP
0C00
0C00
0C00
FFC0
FFC0
0C00
0C00
0C00
0000
FFC0
FFC0
ENDCHAR

STARTCHAR twosuperior
ENCODING 178
SWIDTH 309 0
DWIDTH 6 0
BBX 5 8 0 6
BITMAP
70
F8
98
18
30
60
F8
F8
ENDCHAR

STARTCHAR threesuperior
ENCODING 179
SWIDTH 309 0
DWIDTH 6 0
BBX 5 8 0 6
BITMAP
70
F8
98
30
18
98
F8
70
ENDCHAR

STARTCHAR acute
ENCODING 180
SWIDTH 411 0
DWIDTH 8 0
BBX 6 4 1 10
BITMAP
08
3C
F0
40
ENDCHAR

STARTCHAR mu
ENCODING 181
SWIDTH 617 0
DWIDTH 12 0
BBX 11 14 0 -4
BITMAP
F3C0
F3C0
71C0
71C0
71C0
71C0
71C0
7BC0
7FE0
7DE0
6000
7000
7000
7000
ENDCHAR

STARTCHAR paragraph
ENCODING 182
SWIDTH 566 0
DWIDTH 11 0
BBX 10 17 0 -3
BITMAP
3FC0
7FC0
7980
F980
F980
F980
7980
7980
3980
1980
1980
1980
1980
1980
1980
1980
1980
ENDCHAR

STARTCHAR periodcentered
ENCODING 183
SWIDTH 257 0
DWIDTH 5 0
BBX 3 3 1 4
BITMAP
E0
E0
E0
ENDCHAR

STARTCHAR cedilla
ENCODING 184
SWIDTH 360 0
DWIDTH 7 0
BBX 5 4 2 -4
BITMAP
20
30
98
70
ENDCHAR

STARTCHAR onesuperior
ENCODING 185
SWIDTH 309 0
DWIDTH 6 0
BBX 4 8 0 6
BITMAP
E0
60
60
60
60
60
60
F0
ENDCHAR

STARTCHAR divide
ENCODING 186
SWIDTH 617 0
DWIDTH 12 0
BBX 10 8 1 1
BITMAP
0C00
0C00
0000
FFC0
FFC0
0000
0C00
0C00
ENDCHAR

STARTCHAR guillemotright
ENCODING 187
SWIDTH 411 0
DWIDTH 8 0
BBX 6 7 1 2
BITMAP
90
D8
6C
24
6C
D8
90
ENDCHAR

STARTCHAR onequarter
ENCODING 188
SWIDTH 823 0
DWIDTH 16 0
BBX 13 14 1 0
BITMAP
E0C0
60C0
6180
6180
6300
6300
6630
F670
0CF0
0DB0
1B30
1BF8
3030
3078
ENDCHAR

STARTCHAR onehalf
ENCODING 189
SWIDTH 823 0
DWIDTH 16 0
BBX 13 14 1 0
BITMAP
E0C0
60C0
6180
6180
6300
6300
6670
F6F8
0C98
0C18
1830
1860
30F8
30F8
ENDCHAR

STARTCHAR threequarters
ENCODING 190
SWIDTH 823 0
DWIDTH 16 0
BBX 14 14 0 0
BITMAP
7060
F860
98C0
30C0
1980
9980
FB18
7338
0678
06D8
0D98
0DFC
1818
183C
ENDCHAR

STARTCHAR dblunderscore
ENCODING 223
SWIDTH 463 0
DWIDTH 9 0
BBX 9 8 0 -4
BITMAP
0000
0000
FF80
FF80
0000
0000
FF80
FF80
ENDCHAR

STARTCHAR aleph
ENCODING 224
SWIDTH 669 0
DWIDTH 13 0
BBX 12 13 0 0
BITMAP
0000
78F0
3CF0
1C70
0E70
1FF0
3BE0
7380
71C0
71C0
70E0
7CF0
7C70
ENDCHAR

STARTCHAR beth
ENCODING 225
SWIDTH 566 0
DWIDTH 11 0
BBX 11 13 0 0
BITMAP
0000
7F00
7F80
0380
0380
0380
0380
0380
0380
0380
0380
FFC0
FFC0
ENDCHAR

STARTCHAR gimmel
ENCODING 226
SWIDTH 463 0
DWIDTH 9 0
BBX 8 13 0 0
BITMAP
00
3E
3F
07
07
07
07
07
0F
1F
F7
F7
E7
ENDCHAR

STARTCHAR daleth
ENCODING 227
SWIDTH 617 0
DWIDTH 12 0
BBX 11 13 0 0
BITMAP
0000
FFE0
FFE0
0380
0380
0380
0380
0380
0380
0380
0380
0380
0380
ENDCHAR

STARTCHAR he
ENCODING 228
SWIDTH 617 0
DWIDTH 12 0
BBX 10 13 1 0
BITMAP
0000
FF80
FFC0
01C0
01C0
01C0
71C0
71C0
71C0
71C0
71C0
71C0
71C0
ENDCHAR

STARTCHAR waw
ENCODING 229
SWIDTH 309 0
DWIDTH 6 0
BBX 5 13 0 0
BITMAP
00
F8
F8
38
38
38
38
38
38
38
38
38
38
ENDCHAR

STARTCHAR zayin
ENCODING 230
SWIDTH 411 0
DWIDTH 8 0
BBX 7 13 0 0
BITMAP
00
FE
FE
38
38
38
38
38
38
38
38
38
38
ENDCHAR

STARTCHAR het
ENCODING 231
SWIDTH 720 0
DWIDTH 14 0
BBX 14 13 0 0
BITMAP
0000
FFF8
FFF8
38E0
38E0
38E0
38E0
38E0
38E0
38E0
38E0
38E0
38E0
ENDCHAR

STARTCHAR teth
ENCODING 232
SWIDTH 669 0
DWIDTH 13 0
BBX 12 13 0 0
BITMAP
0000
F3E0
F7F0
7670
7670
7670
7070
7070
7070
7070
78F0
3FE0
0F80
ENDCHAR

STARTCHAR yod
ENCODING 233
SWIDTH 360 0
DWIDTH 7 0
BBX 6 9 0 4
BITMAP
00
FC
FC
1C
1C
1C
1C
1C
00
ENDCHAR

STARTCHAR kaphfinal
ENCODING 234
SWIDTH 566 0
DWIDTH 11 0
BBX 10 17 0 -4
BITMAP
0000
FFC0
FFC0
0700
0700
0700
0700
0700
0700
0700
0700
0700
0700
0700
07C0
07C0
0000
ENDCHAR

STARTCHAR kaph
ENCODING 235
SWIDTH 566 0
DWIDTH 11 0
BBX 9 13 1 0
BITMAP
0000
FF00
FF80
0380
0380
0380
0380
0380
0380
0380
0380
FF80
FF00
ENDCHAR

STARTCHAR lamed
ENCODING 236
SWIDTH 566 0
DWIDTH 11 0
BBX 10 15 0 0
BITMAP
E000
E000
E000
FFC0
FFC0
01C0
01C0
01C0
03C0
0780
0F00
1E00
1C00
1F80
1F80
ENDCHAR

STARTCHAR memfinal
ENCODING 237
SWIDTH 617 0
DWIDTH 12 0
BBX 12 13 0 0
BITMAP
0000
FFC0
FFE0
70E0
70E0
70E0
70E0
70E0
70E0
70E0
70E0
7FE0
7FE0
ENDCHAR

STARTCHAR mem
ENCODING 238
SWIDTH 669 0
DWIDTH 13 0
BBX 12 13 0 0
BITMAP
0000
79E0
7BF0
3EF0
3C70
3870
3870
3870
3870
3870
3870
3BF0
3BF0
ENDCHAR

STARTCHAR nunfinal
ENCODING 239
SWIDTH 309 0
DWIDTH 6 0
BBX 6 17 0 -4
BITMAP
00
F8
F8
38
38
38
38
38
38
38
38
38
38
38
3C
3C
00
ENDCHAR

STARTCHAR nun
ENCODING 240
SWIDTH 411 0
DWIDTH 8 0
BBX 7 14 0 -1
BITMAP
00
7C
7E
0E
0E
0E
0E
0E
0E
0E
0E
FE
FE
00
ENDCHAR

STARTCHAR samekh
ENCODING 241
SWIDTH 669 0
DWIDTH 13 0
BBX 12 13 0 0
BITMAP
0000
FFE0
FFF0
3870
3870
3870
3870
3870
3870
3870
3CF0
1FE0
0FC0
ENDCHAR

STARTCHAR ayin
ENCODING 242
SWIDTH 617 0
DWIDTH 12 0
BBX 11 14 0 -1
BITMAP
0000
F9E0
F9E0
38E0
38E0
38E0
38E0
38E0
38E0
39C0
3BC0
FF80
FE00
0000
ENDCHAR

STARTCHAR pefinal
ENCODING 243
SWIDTH 566 0
DWIDTH 11 0
BBX 11 16 0 -3
BITMAP
0000
FFC0
FFC0
E1C0
E1C0
E1C0
E1C0
F1C0
F1C0
01C0
01C0
01C0
01C0
01C0
01E0
01E0
ENDCHAR

STARTCHAR pe
ENCODING 244
SWIDTH 617 0
DWIDTH 12 0
BBX 10 13 1 0
BITMAP
0000
FF80
FFC0
E1C0
E1C0
E1C0
F1C0
F1C0
01C0
01C0
01C0
FFC0
FFC0
ENDCHAR

STARTCHAR zadikfinal
ENCODING 245
SWIDTH 566 0
DWIDTH 11 0
BBX 11 17 0 -4
BITMAP
0000
FBC0
FBE0
38E0
38E0
38E0
39C0
3B80
3F00
3C00
3800
3800
3800
3800
3F00
3F00
0000
ENDCHAR

STARTCHAR zadik
ENCODING 246
SWIDTH 617 0
DWIDTH 12 0
BBX 11 13 0 0
BITMAP
0000
FDE0
FDE0
1CE0
1CE0
1DE0
1FC0
0F00
0780
0380
01C0
FFC0
FF80
ENDCHAR

STARTCHAR kof
ENCODING 247
SWIDTH 669 0
DWIDTH 13 0
BBX 11 16 1 -3
BITMAP
0000
FFC0
FFE0
00E0
00E0
70E0
70E0
71E0
73C0
7780
7700
77C0
77C0
7000
7000
7000
ENDCHAR

STARTCHAR resh
ENCODING 248
SWIDTH 514 0
DWIDTH 10 0
BBX 9 13 0 0
BITMAP
0000
FF00
FF80
0380
0380
0380
0380
0380
0380
0380
0380
0380
0380
ENDCHAR

STARTCHAR shin
ENCODING 249
SWIDTH 771 0
DWIDTH 15 0
BBX 13 13 1 0
BITMAP
0000
F778
F778
E738
E738
E738
E738
E738
E738
E738
E738
FFF8
7FF0
ENDCHAR

STARTCHAR taf
ENCODING 250
SWIDTH 669 0
DWIDTH 13 0
BBX 13 13 0 0
BITMAP
0000
7FE0
7FF0
1C70
1C70
1C70
1C70
1C70
1C70
1C70
1C70
7C70
7C70
ENDCHAR
ENDFONT
